<?xml version="1.0" encoding="UTF-8" standalone="no"?>
<svg
   xmlns:dc="http://purl.org/dc/elements/1.1/"
   xmlns:cc="http://creativecommons.org/ns#"
   xmlns:rdf="http://www.w3.org/1999/02/22-rdf-syntax-ns#"
   xmlns:svg="http://www.w3.org/2000/svg"
   xmlns="http://www.w3.org/2000/svg"
   xml:space="preserve"
   enable-background="new 0 0 841.89 841.89"
   viewBox="0 0 841.89 841.89"
   height="841.89px"
   width="841.89px"
   y="0px"
   x="0px"
   id="Capa_1"
   version="1.1"><metadata
     id="metadata18"><rdf:RDF><cc:Work
         rdf:about=""><dc:format>image/svg+xml</dc:format><dc:type
           rdf:resource="http://purl.org/dc/dcmitype/StillImage" /><dc:title></dc:title></cc:Work></rdf:RDF></metadata><defs
     id="defs16" /><g
     id="XMLID_131_"><g
       id="XMLID_104_"><g
         id="XMLID_105_"><path
           d="M307.636,252.061L307.636,252.061c-0.007,0-0.023,0-0.031,0c-0.039-0.016-0.108-0.016-0.108-0.016     c-122.05-17.021-200.301,59.293-203.975,62.982c-2.124,2.124-3.31,4.991-3.31,7.968c0,3.022,1.186,5.875,3.31,7.999     l71.764,71.756l0.023-0.016c4.417,4.371,11.525,4.355,15.92-0.031c4.41-4.418,4.41-11.563,0-15.981l-0.016,0.016l-63.269-63.23     c22.144-18.152,85.692-61.432,175.731-49.217l0.008-0.063c6.045,0.961,11.789-3.022,12.897-9.068     C317.688,259.067,313.689,253.255,307.636,252.061z"
           id="XMLID_107_" /><path
           d="M587.459,530.854h0.016c0,0.016,0,0.016,0,0.016c0.016,0.046,0.016,0.124,0.016,0.124     c17.021,122.042-59.293,200.293-62.982,203.967c-2.123,2.124-4.991,3.317-7.982,3.317c-3.008,0-5.859-1.193-7.969-3.317     l-71.779-71.756l0.023-0.031c-4.363-4.418-4.363-11.518,0.031-15.92c4.41-4.402,11.564-4.402,15.982,0l-0.016,0.016l63.23,63.276     c18.152-22.151,61.447-85.691,49.232-175.739h0.031c-0.962-6.045,3.037-11.796,9.083-12.896     C580.469,520.793,586.281,524.808,587.459,530.854z"
           id="XMLID_109_" /></g><path
         d="M615.238,224.174c-32.941-32.956-92.668-26.817-133.143,13.642    c-40.474,40.474-46.604,100.2-13.656,133.156c32.956,32.94,92.684,26.817,133.157-13.656    C642.055,316.841,648.193,257.114,615.238,224.174z M485.166,354.246c-23.732-23.717-17.595-68.454,13.656-99.705    c31.251-31.235,75.973-37.374,99.705-13.642c23.717,23.718,17.578,68.454-13.656,99.689    C553.619,371.84,508.898,377.963,485.166,354.246z"
         id="XMLID_126_" /><path
         d="M45.073,810.901c-3.162,0-6.324-1.209-8.735-3.627c-4.821-4.821-4.821-12.634,0-17.455l141.814-142.551    c4.821-4.82,12.642-4.82,17.47,0c4.821,4.821,4.821,12.634,0,17.47L53.809,807.274C51.39,809.692,48.236,810.901,45.073,810.901z"
         id="XMLID_103_" /><path
         d="M53.809,682.178l45.171-45.171c4.829-4.821,4.829-12.634,0-17.47c-4.813-4.821-12.634-4.821-17.462,0    l-45.179,45.171c-4.821,4.82-4.821,12.634,0,17.47c2.411,2.418,5.581,3.612,8.735,3.612    C48.228,685.79,51.398,684.596,53.809,682.178z"
         id="XMLID_115_" /><path
         d="M174.843,804.701l45.171-45.172c4.829-4.82,4.829-12.633,0-17.47c-4.813-4.821-12.633-4.821-17.462,0    l-45.179,45.171c-4.821,4.837-4.821,12.634,0,17.471c2.411,2.402,5.581,3.611,8.735,3.611    C169.263,808.313,172.433,807.104,174.843,804.701z"
         id="XMLID_117_" /></g><path
       d="M790.311,49.24c-13.146-13.176-62.967-19.175-103.457-17.454c-34.785,1.52-99.084,9.998-138.861,49.79   L209.946,419.554c-5.278,5.285-5.271,13.843,0.023,19.113l35.211,35.095l120.593,120.601l35.165,35.157   c5.271,5.271,13.819,5.271,19.09,0l337.946-337.961C825.498,224.034,812.508,71.423,790.311,49.24z M749.495,267.097   l-15.454,16.463L410.457,607.12L232.408,429.056l323.569-323.561l16.446-15.455c63.091-50.519,188.962-35.839,201.828-24.957   C785.318,78.12,800.014,204.037,749.495,267.097z"
       id="XMLID_119_" /><path
       d="M372.959,582.07c-5.736-2.496-12.401,0.139-14.889,5.875l-25.36,59.122L194.607,508.965l62.106-26.6   c5.487-2.992,7.503-9.875,4.503-15.362c-2.969-5.44-9.75-7.44-15.215-4.542l-0.039-0.077l-75.569,32.397   c-3.441,1.473-5.945,4.558-6.643,8.247c-0.705,3.674,0.45,7.472,3.108,10.122L328.54,674.83c2.131,2.14,5.015,3.302,7.983,3.302   c0.705,0,1.426-0.062,2.124-0.201c3.689-0.713,6.767-3.193,8.247-6.635l31.879-74.376l0.07,0.031   C381.33,591.216,378.694,584.55,372.959,582.07z"
       id="XMLID_108_" /></g></svg>