<?xml version="1.0" encoding="UTF-8" standalone="no"?>
<svg
   xmlns:dc="http://purl.org/dc/elements/1.1/"
   xmlns:cc="http://creativecommons.org/ns#"
   xmlns:rdf="http://www.w3.org/1999/02/22-rdf-syntax-ns#"
   xmlns:svg="http://www.w3.org/2000/svg"
   xmlns="http://www.w3.org/2000/svg"
   xml:space="preserve"
   enable-background="new 0 0 841.89 841.89"
   viewBox="0 0 841.89 841.89"
   height="841.89px"
   width="841.89px"
   y="0px"
   x="0px"
   id="Capa_1"
   version="1.1"><metadata
     id="metadata17"><rdf:RDF><cc:Work
         rdf:about=""><dc:format>image/svg+xml</dc:format><dc:type
           rdf:resource="http://purl.org/dc/dcmitype/StillImage" /><dc:title></dc:title></cc:Work></rdf:RDF></metadata><defs
     id="defs15" /><g
     id="XMLID_111_"><g
       id="XMLID_9_"><path
         d="M345.723,282.752c-40.224-33.356-82.947-56.29-101.264-66.459c20.959-19.472,34.558-50.306,34.558-85.016    c0-58.765-38.911-106.572-86.75-106.572c-47.839,0-86.75,47.808-86.75,106.572c0,34.773,13.647,65.671,34.686,85.135    c-18.557,9.533-60.905,33.254-100.811,66.34c-11.347,9.286-17.53,22.702-17.53,38.171v51.587c0,7.218,5.156,12.382,12.381,12.382    c7.217,0,12.374-5.164,12.374-12.382v-51.587c0-7.217,3.095-13.408,8.251-18.564c45.396-37.145,94.915-61.899,104.201-67.056    c5.132-2.586,8.578-4.424,9.079-4.694c4.727-1.831,8.101-6.343,8.101-11.714s-3.39-9.891-8.125-11.713v-0.031    c-22.487-12.462-38.322-41.769-38.322-75.873c0-45.372,28.018-82.286,62.465-82.286c34.447,0,62.464,36.914,62.464,82.286    c0,33.293-15.079,62.027-36.715,74.974l-1.249,0.804v0.246c-3.613,2.221-6.151,6.024-6.151,10.575    c0,4.544,2.539,8.355,6.151,10.575c0,0,64.868,38.88,113.479,73.907c5.355,3.859,8.252,11.348,8.252,18.564v51.587    c0,7.218,5.156,12.382,12.381,12.382s12.381-5.164,12.381-12.382v-51.587C363.26,306.48,357.07,292.038,345.723,282.752z"
         id="XMLID_3_" /><path
         d="M801.166,716.265c-40.232-33.357-82.947-56.29-101.266-66.459c20.96-19.464,34.551-50.307,34.551-85.016    c0-58.757-38.895-106.564-86.734-106.564c-47.839,0-86.766,47.808-86.766,106.564c0,34.789,13.654,65.663,34.693,85.143    c-18.557,9.517-60.904,33.245-100.803,66.332c-11.347,9.294-17.537,22.694-17.537,38.179v51.579    c0,7.226,5.156,12.382,12.381,12.382s12.382-5.156,12.382-12.382v-51.579c0-7.225,3.087-13.416,8.243-18.572    c45.389-37.145,94.914-61.907,104.209-67.063c5.125-2.578,8.563-4.425,9.071-4.679c4.727-1.847,8.101-6.351,8.101-11.714    c0-5.379-3.391-9.898-8.133-11.713v-0.032c-22.471-12.477-38.322-41.775-38.322-75.88c0-45.356,28.042-82.278,62.48-82.278    c34.439,0,62.465,36.922,62.465,82.278c0,33.293-15.087,62.035-36.715,74.974l-1.258,0.812v0.238    c-3.611,2.212-6.143,6.032-6.143,10.583c0,4.552,2.531,8.34,6.143,10.567c0,0,64.885,38.896,113.487,73.907    c5.347,3.852,8.243,11.348,8.243,18.572v51.579c0,7.226,5.157,12.382,12.383,12.382c7.225,0,12.381-5.156,12.381-12.382v-51.579    C818.703,740.009,812.512,725.559,801.166,716.265z"
         id="XMLID_22_" /></g><g
       id="XMLID_70_"><path
         d="M405.164,538.037c-3.032-3.039-6.063-4.042-9.087-4.042c-3.032,0-7.074,2.021-9.087,4.042    c-5.053,4.043-5.053,12.111,0,17.172l43.924,44.052c0,0,5.491,4.679,5.26,10.727c-0.095,2.387-0.501,4.87-2.809,7.957    l-45.373,45.325c-5.045,4.026-4.034,12.11,0,17.155c4.042,5.061,12.119,5.061,17.172,0l62.608-62.607    c5.045-4.043,5.045-12.127,0-17.172L405.164,538.037z"
         id="XMLID_80_" /><path
         d="M402.689,609.987c0-6.971-5.642-12.604-12.604-12.604l-46.049-0.048    c-70.685,0-128.248-57.563-128.248-128.255v-32.45c0-7.066-5.053-12.111-11.108-11.108c-7.074,0-12.119,5.045-12.119,12.111    v32.466c0,83.806,68.671,152.493,152.485,152.493h45.038C397.047,622.592,402.689,616.941,402.689,609.987z"
         id="XMLID_79_" /></g><g
       id="XMLID_82_"><path
         d="M449.597,229.852c3.04,3.032,6.063,4.035,9.087,4.035c3.024,0,7.066-2.014,9.088-4.035    c5.045-4.042,5.045-12.118,0-17.171l-43.932-44.067c0,0-5.491-4.68-5.252-10.703c0.087-2.395,0.501-4.878,2.809-7.957    l45.372-45.325c5.045-4.042,4.042-12.118,0-17.163c-4.042-5.053-12.127-5.053-17.172,0l-62.607,62.607    c-5.053,4.042-5.053,12.119,0,17.172L449.597,229.852z"
         id="XMLID_84_" /><path
         d="M452.063,157.91c0,6.955,5.649,12.597,12.604,12.597l46.057,0.048c70.692,0,128.24,57.563,128.24,128.247    v32.45c0,7.073,5.061,12.118,11.107,11.116c7.066,0,12.127-5.053,12.127-12.127v-32.45c0-83.813-68.671-152.485-152.493-152.485    h-45.038C457.713,145.306,452.063,150.947,452.063,157.91z"
         id="XMLID_83_" /></g></g></svg>