<?xml version="1.0" encoding="UTF-8" standalone="no"?>
<svg
   xmlns:dc="http://purl.org/dc/elements/1.1/"
   xmlns:cc="http://creativecommons.org/ns#"
   xmlns:rdf="http://www.w3.org/1999/02/22-rdf-syntax-ns#"
   xmlns:svg="http://www.w3.org/2000/svg"
   xmlns="http://www.w3.org/2000/svg"
   xml:space="preserve"
   enable-background="new 0 0 100 104"
   viewBox="0 0 100 104"
   height="104px"
   width="100px"
   y="0px"
   x="0px"
   id="Capa_1"
   version="1.1"><metadata
     id="metadata23"><rdf:RDF><cc:Work
         rdf:about=""><dc:format>image/svg+xml</dc:format><dc:type
           rdf:resource="http://purl.org/dc/dcmitype/StillImage" /><dc:title></dc:title></cc:Work></rdf:RDF></metadata><defs
     id="defs21" /><g
     transform="matrix(1.2291617,0,0,1.2436337,-11.571168,-10.315683)"
     id="g3"><rect
       style="fill:#1d1d1b"
       id="rect5"
       height="2.487"
       width="2.4860001"
       y="21.070999"
       x="54.144001" /><rect
       style="fill:#1d1d1b"
       id="rect7"
       height="3.516"
       width="2.4849999"
       transform="matrix(-0.7073,0.7069,-0.7069,-0.7073,105.3084,112.939)"
       y="76.513"
       x="28.030001" /><path
       style="fill:#1d1d1b"
       id="path9"
       d="m 77.406,62.47 -3.73,-3.729 c -0.239,-0.239 -0.583,-0.385 -0.904,-0.365 -0.339,0.008 -0.66,0.152 -0.89,0.401 l -0.135,0.342 -1.073,-1.257 0,-3.216 c 0,-0.329 -0.131,-0.646 -0.365,-0.879 l -7.096,-7.097 0,-8.19 c 0,-0.33 -0.131,-0.647 -0.364,-0.88 l -2.123,-2.123 0,-1.972 c 0,0 1.243,-0.557 1.243,-1.244 l 0,-4.974 0,-16.53 -2.487,0 0,14.923 -17.41,0 0,-14.922 -2.486,0 0,16.53 0,4.974 c 0,0.687 0,1.244 1.243,1.244 l 0,1.972 -4.61,4.61 c -0.233,0.233 -0.363,0.55 -0.363,0.879 l 0,3.216 -5.854,5.854 c -0.234,0.232 -0.363,0.549 -0.363,0.878 l 0,6.946 -1.427,1.244 -0.455,-0.364 c -0.485,-0.486 -1.317,-0.486 -1.804,0 l -3.752,3.729 -11.203,11.193 1.752,1.758 10.31,-10.313 13.161,13.163 -10.314,10.313 1.759,1.759 11.19,-11.191 3.731,-3.73 c 0.487,-0.486 0.487,-1.272 0,-1.758 l -0.365,-0.365 1.312,-1.31 c 0.215,0.037 0.436,0.065 0.661,0.065 0.491,0 0.957,-0.101 1.389,-0.273 0.429,1.586 1.866,2.762 3.585,2.762 1.325,0 2.483,-0.882 3.146,-1.926 0.543,0.309 1.161,0.317 1.829,0.317 l 1.972,0 1.229,1.41 -0.383,0.507 c -0.452,0.491 -0.438,1.296 0.035,1.768 l 3.731,3.753 9.947,9.96 1.758,-1.753 -9.103,-9.101 4.411,-4.777 8.822,-9.559 11.521,11.523 1.757,-1.759 L 77.406,62.47 Z m -17.925,-34.303 0,2.486 -17.409,0 0,-2.486 17.409,0 z M 37.979,76.514 24.814,63.35 l 1.971,-1.972 0.366,0.364 12.435,12.436 0.365,0.364 -1.972,1.972 z m -8.19,-15.651 1.789,-1.608 c 0.233,-0.233 0.547,-0.549 0.547,-0.879 l 0,-6.946 3.73,-3.73 0,1.972 c 0,0.33 0.13,0.646 0.363,0.879 l 4.61,4.61 0,13.164 c 0,0.898 0.149,1.71 0.679,2.355 L 40.555,71.54 29.789,60.863 Z m 23.476,8.704 0,-19.017 -2.487,0 0,19.017 0,1.243 c 0,0.686 -0.558,1.243 -1.242,1.243 -0.687,0 -1.245,-0.558 -1.245,-1.243 l 0,-2.486 0,-17.774 -2.486,0 0,17.774 c 0,0.686 -0.558,1.243 -1.243,1.243 -0.687,0 -1.244,-0.558 -1.244,-1.243 l 0,-20.261 -2.487,0 0,3.58 -2.487,-2.487 0,-3.216 0,-2.486 0,-1.972 4.61,-4.61 c 0.233,-0.232 0.364,-0.55 0.364,-0.879 l 0,-2.851 14.922,0 0,2.851 c 0,0.33 0.132,0.647 0.364,0.879 l 2.123,2.122 0,24.356 c 0,0.686 -0.558,1.244 -1.244,1.244 -0.685,0 -1.243,-0.559 -1.243,-1.244 l 0,-12.8 -2.487,0 0,12.8 0,6.218 c 0,0.686 -0.558,1.243 -1.244,1.243 -0.686,0 -1.244,-0.558 -1.244,-1.244 z m 4.245,1.609 c -0.005,-0.004 0.174,-0.004 0.172,-0.007 0.233,-0.487 0.557,-1.026 0.557,-1.602 l 0,-2.716 c 0,0.141 0.806,0.229 1.243,0.229 2.058,0 3.731,-1.673 3.731,-3.73 l 0,-13.164 4.975,4.975 0,3.215 c 0,0.33 -0.052,0.646 0.181,0.879 l 1.557,1.649 -5.478,5.976 -5.394,5.817 -1.544,-1.521 z m 2.227,4.424 c 0.106,-0.063 0.215,-0.127 0.3,-0.221 l 6.225,-6.849 6.569,-7.117 1.97,1.973 -4.411,4.778 -8.822,9.558 -1.97,-1.972 0.139,-0.15 z" /><rect
       style="fill:#1d1d1b"
       id="rect11"
       height="2.487"
       width="3.5179999"
       transform="matrix(-0.7071,0.7071,-0.7071,-0.7071,181.5882,68.8931)"
       y="70.810997"
       x="74.766998" /><path
       style="fill:#1d1d1b"
       id="path13"
       d="m 50.414,84.49 c -4.154,0 -8.186,-0.805 -11.98,-2.394 l -0.959,2.296 c 4.102,1.715 8.454,2.584 12.939,2.584 3.525,0 7.001,-0.545 10.329,-1.619 L 59.978,82.99 c -3.079,0.995 -6.298,1.5 -9.564,1.5 z" /><path
       style="fill:#1d1d1b"
       id="path15"
       d="m 81.501,53.401 c 0,2.914 -0.402,5.796 -1.195,8.567 l 2.391,0.686 c 0.857,-2.994 1.293,-6.107 1.293,-9.251 0,-12.983 -7.604,-24.929 -19.369,-30.43 l -1.053,2.253 C 74.461,30.32 81.501,41.38 81.501,53.401 Z" /><path
       style="fill:#1d1d1b"
       id="path17"
       d="m 20.465,61.772 c -0.756,-2.711 -1.14,-5.528 -1.14,-8.371 0,-12.021 7.041,-23.082 17.936,-28.176 l -1.053,-2.253 c -11.767,5.501 -19.37,17.446 -19.37,30.429 0,3.069 0.414,6.11 1.232,9.038 l 2.395,-0.667 z" /></g></svg>