<?xml version="1.0" encoding="UTF-8" standalone="no"?>
<svg
   xmlns:dc="http://purl.org/dc/elements/1.1/"
   xmlns:cc="http://creativecommons.org/ns#"
   xmlns:rdf="http://www.w3.org/1999/02/22-rdf-syntax-ns#"
   xmlns:svg="http://www.w3.org/2000/svg"
   xmlns="http://www.w3.org/2000/svg"
   xml:space="preserve"
   enable-background="new 0 0 841.89 841.89"
   viewBox="0 0 841.89 841.89"
   height="841.89px"
   width="841.89px"
   y="0px"
   x="0px"
   id="Capa_1"
   version="1.1"><metadata
     id="metadata13"><rdf:RDF><cc:Work
         rdf:about=""><dc:format>image/svg+xml</dc:format><dc:type
           rdf:resource="http://purl.org/dc/dcmitype/StillImage" /><dc:title></dc:title></cc:Work></rdf:RDF></metadata><defs
     id="defs11" /><g
     id="XMLID_14_"><g
       id="XMLID_21_"><path
         d="M786.674,30.354H52.309c-12.246,0-22.168,9.922-22.168,22.176v356.803    c0,12.246,9.922,22.168,22.168,22.168h734.365c12.238,0,22.176-9.922,22.176-22.168V52.529    C808.85,40.275,798.912,30.354,786.674,30.354z M772.15,408.276H67.543c-7.527,0-13.631-6.096-13.631-13.623V65.229    c0-7.52,6.104-13.623,13.631-13.623H772.15c7.527,0,13.615,6.104,13.615,13.623v329.424    C785.766,402.181,779.678,408.276,772.15,408.276z"
         id="XMLID_24_" /><path
         d="M296.974,704.773c-38.106-25.29-73.991-46.792-73.991-46.792c-3.544-2.176-6.041-5.916-6.041-10.392    s2.496-8.216,6.041-10.407v-0.234l1.236-0.783c21.275-12.738,36.104-41.002,36.104-73.74c0-44.602-27.551-80.908-61.424-80.908    c-33.874,0-61.433,36.307-61.433,80.908c0,33.553,15.579,62.363,37.692,74.617v0.031c4.656,1.784,7.989,6.229,7.989,11.518    c0,5.274-3.318,9.719-7.966,11.519c-0.5,0.266-3.881,2.065-8.928,4.601c-9.131,5.087-57.825,29.422-102.465,65.947    c-5.071,5.071-8.114,11.158-8.114,18.264v50.72c0,7.105-5.071,12.176-12.176,12.176c-7.097,0-12.175-5.07-12.175-12.176v-50.72    c0-15.228,6.088-28.404,17.254-37.544c39.233-32.52,80.869-55.853,99.125-65.228c-20.689-19.139-34.108-49.515-34.108-83.725    c0-57.778,38.263-104.79,85.306-104.79c47.035,0,85.306,47.012,85.306,104.79c0,34.132-13.373,64.46-33.983,83.6    c13.263,7.371,39.531,21.534,68.255,41.597L296.974,704.773z"
         id="XMLID_7_" /><path
         d="M571.586,711.377c-39.563-32.801-81.566-55.337-99.578-65.353c20.609-19.14,33.975-49.468,33.975-83.6    c0-57.778-38.248-104.79-85.298-104.79c-47.042,0-85.306,47.012-85.306,104.79c0,34.21,13.419,64.586,34.108,83.725    c-18.255,9.375-59.891,32.708-99.125,65.228c-11.158,9.14-17.246,22.316-17.246,37.544v50.72c0,7.105,5.07,12.176,12.167,12.176    c7.105,0,12.175-5.07,12.175-12.176v-50.72c0-7.105,3.044-13.192,8.114-18.264c44.641-36.525,93.334-60.86,102.466-65.947    c5.047-2.535,8.435-4.335,8.936-4.601c4.64-1.8,7.958-6.244,7.958-11.519c0-5.289-3.333-9.733-7.989-11.518v-0.031    c-22.113-12.254-37.684-41.064-37.684-74.617c0-44.602,27.551-80.908,61.424-80.908s61.433,36.307,61.433,80.908    c0,32.738-14.836,61.002-36.111,73.74l-1.229,0.783v0.234c-3.553,2.191-6.041,5.932-6.041,10.407s2.488,8.216,6.041,10.392    c0,0,63.787,38.247,111.597,72.676c5.259,3.804,8.106,11.158,8.106,18.264v50.72c0,7.105,5.07,12.176,12.176,12.176    c7.104,0,12.176-5.07,12.176-12.176v-50.72C588.832,734.727,582.744,720.517,571.586,711.377z"
         id="XMLID_8_" /><path
         d="M541.914,704.992c32.551-22.112,61.127-36.495,67.919-40.282c5.039-2.535,8.419-4.335,8.921-4.601    c4.647-1.8,7.965-6.244,7.965-11.519c0-5.289-3.333-9.733-7.996-11.518v-0.031c-22.098-12.254-37.686-41.064-37.686-74.617    c0-44.602,27.575-80.908,61.441-80.908c33.865,0,61.424,36.307,61.424,80.908c0,32.738-14.836,61.002-36.104,73.74l-1.236,0.783    v0.234c-3.553,2.191-6.041,5.932-6.041,10.407s2.488,8.216,6.041,10.392c0,0,63.804,38.247,111.598,72.676    c5.258,3.804,8.106,11.158,8.106,18.264v50.72c0,7.105,5.07,12.176,12.175,12.176c7.105,0,12.176-5.07,12.176-12.176v-50.72    c0-14.194-6.088-28.404-17.246-37.544c-39.562-32.801-81.565-55.337-99.578-65.353c20.611-19.14,33.976-49.468,33.976-83.6    c0-57.778-38.247-104.79-85.29-104.79s-85.322,47.012-85.322,104.79c0,34.21,13.428,64.586,34.116,83.725    c-13.865,7.121-41.236,22.301-70.798,43.443"
         id="XMLID_10_" /></g></g></svg>