<?xml version="1.0" encoding="UTF-8" standalone="no"?>
<svg
   xmlns:dc="http://purl.org/dc/elements/1.1/"
   xmlns:cc="http://creativecommons.org/ns#"
   xmlns:rdf="http://www.w3.org/1999/02/22-rdf-syntax-ns#"
   xmlns:svg="http://www.w3.org/2000/svg"
   xmlns="http://www.w3.org/2000/svg"
   xml:space="preserve"
   enable-background="new 0 0 841.89 841.89"
   viewBox="0 0 841.89 841.89"
   height="841.89px"
   width="841.89px"
   y="0px"
   x="0px"
   id="Capa_1"
   version="1.1"><metadata
     id="metadata16"><rdf:RDF><cc:Work
         rdf:about=""><dc:format>image/svg+xml</dc:format><dc:type
           rdf:resource="http://purl.org/dc/dcmitype/StillImage" /><dc:title></dc:title></cc:Work></rdf:RDF></metadata><defs
     id="defs14" /><g
     id="XMLID_110_"><g
       id="XMLID_12_"><g
         id="XMLID_16_"><g
           id="XMLID_17_"><path
             d="M486.762,827.678h-246.45c-33.667,0-82.356-27.618-123.147-159.187      c-24.781-79.952-40.791-181.815-40.791-259.509c0-28.784,2.25-51.886,6.676-68.662c7.948-30.039,22.898-36.349,34.033-36.349      h492.917c10.662,0,24.96,6.081,32.346,35.045c4.044,15.871,6.098,37.775,6.098,65.108c0,77.433-15.814,180.013-40.302,261.367      c-14.086,46.856-30.227,84.289-47.965,111.287C537.986,810.559,513.287,827.678,486.762,827.678z M118.387,334.785      c-4.989,5.454-15.716,36.936-9.228,123.425c5.51,73.496,21.447,154.687,42.633,217.21      c26.151,77.196,58.407,121.461,88.519,121.461h246.45c25.58,0,53.98-36.047,77.914-98.913      c23.298-61.235,41.786-146.014,49.464-226.78c8.315-87.509-0.13-128.43-6.13-136.41H118.387V334.785z"
             id="XMLID_18_" /></g></g><path
         d="M754.251,465.742c-11.167-23.803-29.182-38.688-50.703-41.925c0,0-0.945,0-1.45,0    c-8.494,0-15.392,6.889-15.392,15.383c0,7.401,4.974,13.271,11.887,14.967l0.357,0.113c14.869,2.234,23.559,16.354,27.423,24.57    c7.629,16.271,10.059,37.024,6.831,58.464c-6.212,41.28-32.395,73.006-57.145,69.289c0,0-1.891-0.196-2.901-0.196    c-8.493,0-15.391,6.881-15.391,15.392c0,7.906,6.065,14.184,13.744,15.047l-0.033,0.212c2.902,0.457,5.789,0.652,8.675,0.652    c39.389,0,75.142-40.106,83.521-95.814C767.784,514.506,764.441,487.458,754.251,465.742z"
         id="XMLID_23_" /></g><path
       d="M233.684,268.772c-3.122,0-6.269-1.027-8.894-3.139c-1.133-0.912-27.805-22.742-27.544-52.921   c0.155-18.071,9.48-34.44,27.732-48.633c9.521-7.409,14.175-15.137,14.225-23.624c0.098-17.436-18.831-36.438-25.474-41.72   c-6.13-4.874-7.149-13.801-2.266-19.939c4.875-6.138,13.785-7.157,19.939-2.266c3.726,2.958,36.373,29.924,36.177,64.08   c-0.065,12.048-4.483,29.778-25.172,45.87c-11.062,8.6-16.703,17.509-16.785,26.477c-0.138,16.066,16.801,30.431,16.972,30.569   c6.106,4.916,7.068,13.85,2.152,19.956C241.942,266.963,237.833,268.772,233.684,268.772z"
       id="XMLID_26_" /><path
       d="M479.931,268.772c-3.131,0-6.261-1.027-8.901-3.139c-1.125-0.912-27.797-22.742-27.536-52.921   c0.146-18.071,9.472-34.44,27.731-48.633c9.521-7.409,14.184-15.137,14.217-23.624c0.098-17.436-18.814-36.438-25.466-41.72   c-6.13-4.874-7.142-13.801-2.267-19.939c4.875-6.138,13.776-7.157,19.939-2.266c3.718,2.958,36.373,29.924,36.177,64.08   c-0.065,12.048-4.483,29.778-25.173,45.87c-11.069,8.6-16.71,17.509-16.775,26.477c-0.147,16.066,16.793,30.431,16.955,30.569   c6.114,4.916,7.076,13.85,2.151,19.956C488.18,266.963,484.071,268.772,479.931,268.772z"
       id="XMLID_25_" /><path
       d="M363.72,209.934c-3.122,0-6.269-1.027-8.894-3.138c-1.133-0.913-27.806-22.744-27.544-52.921   c0.155-18.072,9.48-34.441,27.732-48.633c9.521-7.41,14.176-15.138,14.225-23.625c0.098-17.436-18.831-36.437-25.474-41.72   c-6.13-4.875-7.149-13.8-2.266-19.939c4.875-6.138,13.785-7.157,19.939-2.266c3.725,2.958,36.373,29.925,36.177,64.08   c-0.065,12.048-4.483,29.778-25.172,45.87c-11.062,8.601-16.703,17.51-16.784,26.478c-0.139,16.066,16.801,30.43,16.972,30.568   c6.106,4.915,7.068,13.85,2.152,19.955C371.978,208.124,367.869,209.934,363.72,209.934z"
       id="XMLID_27_" /></g></svg>