<?xml version="1.0" encoding="UTF-8" standalone="no"?>
<svg
   xmlns:dc="http://purl.org/dc/elements/1.1/"
   xmlns:cc="http://creativecommons.org/ns#"
   xmlns:rdf="http://www.w3.org/1999/02/22-rdf-syntax-ns#"
   xmlns:svg="http://www.w3.org/2000/svg"
   xmlns="http://www.w3.org/2000/svg"
   xml:space="preserve"
   enable-background="new 0 0 841.89 841.89"
   viewBox="0 0 841.89 841.89"
   height="841.89px"
   width="841.89px"
   y="0px"
   x="0px"
   id="Capa_1"
   version="1.1"><metadata
     id="metadata13"><rdf:RDF><cc:Work
         rdf:about=""><dc:format>image/svg+xml</dc:format><dc:type
           rdf:resource="http://purl.org/dc/dcmitype/StillImage" /><dc:title></dc:title></cc:Work></rdf:RDF></metadata><defs
     id="defs11" /><g
     id="XMLID_68_"><path
       d="M538.235,676.325H296.681l22.979,18.702c4.126,3.352,9.28,5.186,14.591,5.186h169.126   c5.817,0,11.445-2.197,15.714-6.15L538.235,676.325z M715.534,700.213h75.946c12.774,0,23.113-10.339,23.113-23.113V317.175   c0-12.773-10.339-23.129-23.113-23.129H49.277c-12.766,0-23.113,10.355-23.113,23.129V677.1c0,12.758,10.347,23.113,23.113,23.113   h72.074c6.324,0,12.378-2.593,16.742-7.178l15.928-16.71H63.821c-7.604,0-13.77-6.166-13.77-13.77V331.703   c0-7.588,6.166-13.754,13.77-13.754h713.115c7.604,0,13.771,6.166,13.771,13.754v330.853c0,7.604-6.166,13.77-13.771,13.77h-99.755   l24.061,18.939C705.322,698.474,710.349,700.213,715.534,700.213z"
       id="XMLID_69_" /><path
       d="M88.136,310.108c1.359-2.577,3.186-4.98,5.383-7.178c45.096-36.891,94.285-61.489,103.51-66.611   c5.099-2.569,8.521-4.387,9.027-4.655c4.687-1.818,8.039-6.309,8.039-11.636c0-5.344-3.367-9.833-8.07-11.644v-0.023   c-22.338-12.387-38.068-41.499-38.068-75.37c0-45.071,27.832-81.74,62.051-81.74s62.059,36.669,62.059,81.74   c0,33.064-14.987,61.616-36.479,74.477l-1.241,0.799v0.236c-3.588,2.206-6.102,5.992-6.102,10.506c0,4.521,2.514,8.3,6.102,10.513   c0,0,64.446,38.621,112.727,73.409c2.664,1.913,4.711,4.743,6.094,7.968l23.105-8.315c-2.933-7.367-7.596-14.022-13.825-19.129   c-39.958-33.128-82.397-55.909-100.593-66.011c20.829-19.343,34.33-49.98,34.33-84.452c0-58.375-38.653-105.865-86.175-105.865   s-86.175,47.49-86.175,105.865c0,34.543,13.556,65.236,34.456,84.57c-18.434,9.47-60.501,33.033-100.135,65.893   c-5.407,4.427-9.636,9.802-12.576,15.888"
       id="XMLID_15_" /><path
       d="M380.255,714.108c-39.965-33.136-82.396-55.932-100.593-66.019c20.82-19.35,34.329-49.988,34.329-84.451   c0-58.384-38.661-105.874-86.175-105.874c-47.522,0-86.175,47.49-86.175,105.874c0,34.542,13.556,65.228,34.456,84.563   c-18.441,9.47-60.501,33.024-100.143,65.907c-11.271,9.217-17.414,22.544-17.414,37.91v51.237c0,7.178,5.122,12.3,12.292,12.3   c7.177,0,12.3-5.122,12.3-12.3v-51.237c0-7.177,3.075-13.326,8.197-18.449c45.095-36.882,94.285-61.481,103.51-66.604   c5.099-2.576,8.513-4.395,9.019-4.663c4.695-1.818,8.047-6.308,8.047-11.636c0-5.344-3.367-9.833-8.07-11.636V639   c-22.338-12.379-38.076-41.499-38.076-75.361c0-45.072,27.84-81.749,62.059-81.749c34.21,0,62.05,36.677,62.05,81.749   c0,33.057-14.979,61.607-36.472,74.46l-1.249,0.807v0.237c-3.581,2.213-6.103,5.991-6.103,10.513s2.521,8.3,6.103,10.513   c0,0,64.445,38.622,112.734,73.401c5.32,3.842,8.197,11.272,8.197,18.449v51.237c0,7.178,5.122,12.3,12.3,12.3   c7.169,0,12.299-5.122,12.299-12.3v-51.237C397.677,737.681,391.527,723.325,380.255,714.108z"
       id="XMLID_62_" /><path
       d="M764.795,714.108c-39.965-33.136-82.396-55.932-100.593-66.019c20.821-19.35,34.321-49.988,34.321-84.451   c0-58.384-38.637-105.874-86.159-105.874s-86.19,47.49-86.19,105.874c0,34.542,13.563,65.228,34.463,84.563   c-18.434,9.47-60.501,33.024-100.135,65.907c-11.271,9.217-17.421,22.544-17.421,37.91v51.237c0,7.178,5.122,12.3,12.3,12.3   c7.177,0,12.299-5.122,12.299-12.3v-51.237c0-7.177,3.066-13.326,8.189-18.449c45.087-36.882,94.285-61.481,103.518-66.604   c5.09-2.576,8.506-4.395,9.012-4.663c4.695-1.818,8.046-6.308,8.046-11.636c0-5.344-3.367-9.833-8.078-11.636V639   c-22.322-12.379-38.068-41.499-38.068-75.361c0-45.072,27.855-81.749,62.066-81.749s62.051,36.677,62.051,81.749   c0,33.057-14.987,61.607-36.472,74.46l-1.249,0.807v0.237c-3.589,2.213-6.103,5.991-6.103,10.513s2.514,8.3,6.103,10.513   c0,0,64.454,38.622,112.734,73.401c5.312,3.842,8.189,11.272,8.189,18.449v51.237c0,7.178,5.122,12.3,12.3,12.3   c7.177,0,12.299-5.122,12.299-12.3v-51.237C782.217,737.681,776.067,723.325,764.795,714.108z"
       id="XMLID_63_" /><path
       d="M466.431,302.931c45.104-36.891,94.285-61.489,103.502-66.611c5.106-2.569,8.521-4.387,9.027-4.655   c4.694-1.818,8.046-6.309,8.046-11.636c0-5.344-3.383-9.833-8.078-11.644v-0.023c-22.338-12.387-38.068-41.499-38.068-75.37   c0-45.071,27.84-81.74,62.051-81.74s62.066,36.669,62.066,81.74c0,33.064-14.986,61.616-36.486,74.477l-1.234,0.799v0.236   c-3.588,2.206-6.102,5.992-6.102,10.506c0,4.521,2.514,8.3,6.102,10.513c0,0,64.438,38.621,112.719,73.409   c2.909,2.103,5.091,5.28,6.482,8.9l23.776-6.323c-2.782-8.521-7.841-16.283-14.892-22.054   c-39.949-33.128-82.396-55.909-100.578-66.011c20.821-19.343,34.338-49.98,34.338-84.452c0-58.375-38.669-105.865-86.191-105.865   c-47.521,0-86.175,47.49-86.175,105.865c0,34.543,13.563,65.236,34.464,84.57c-18.449,9.47-60.502,33.033-100.15,65.893   c-6.688,5.485-11.58,12.41-14.441,20.362"
       id="XMLID_64_" /></g></svg>