<?xml version="1.0" encoding="UTF-8" standalone="no"?>
<svg
   xmlns:dc="http://purl.org/dc/elements/1.1/"
   xmlns:cc="http://creativecommons.org/ns#"
   xmlns:rdf="http://www.w3.org/1999/02/22-rdf-syntax-ns#"
   xmlns:svg="http://www.w3.org/2000/svg"
   xmlns="http://www.w3.org/2000/svg"
   xmlns:sodipodi="http://sodipodi.sourceforge.net/DTD/sodipodi-0.dtd"
   xmlns:inkscape="http://www.inkscape.org/namespaces/inkscape"
   version="1.1"
   id="Layer_1"
   x="0px"
   y="0px"
   width="300px"
   height="400px"
   viewBox="0 0 300 400"
   style="enable-background:new 0 0 300 550;"
   xml:space="preserve"
   inkscape:version="0.91 r13725"
   sodipodi:docname="java_logo.svg"><metadata
     id="metadata23"><rdf:RDF><cc:Work
         rdf:about=""><dc:format>image/svg+xml</dc:format><dc:type
           rdf:resource="http://purl.org/dc/dcmitype/StillImage" /><dc:title></dc:title></cc:Work></rdf:RDF></metadata><defs
     id="defs21" /><sodipodi:namedview
     pagecolor="#ffffff"
     bordercolor="#666666"
     borderopacity="1"
     objecttolerance="10"
     gridtolerance="10"
     guidetolerance="10"
     inkscape:pageopacity="0"
     inkscape:pageshadow="2"
     inkscape:window-width="1366"
     inkscape:window-height="705"
     id="namedview19"
     showgrid="false"
     inkscape:zoom="0.59"
     inkscape:cx="-105.9322"
     inkscape:cy="200"
     inkscape:window-x="-8"
     inkscape:window-y="-8"
     inkscape:window-maximized="1"
     inkscape:current-layer="Layer_1" /><path
     style="fill:#ffffff;fill-opacity:1"
     d="m 114.30389,301.49349 c 0,0 -13.986,5.50941 9.95337,7.37373 29.00188,2.24118 43.8244,1.91977 75.78466,-2.17771 0,0 8.40266,3.56893 20.13757,6.66008 -71.64647,20.80012 -162.150087,-1.20479 -105.8756,-11.8561"
     id="path3"
     inkscape:connector-curvature="0" /><path
     style="fill:#ffffff;fill-opacity:1"
     d="m 87.362421,255.78875 c 0,0 -18.734194,11.771 9.877216,14.283 36.999503,3.24 66.218813,3.505 116.779463,-4.759 0,0 6.99322,6.018 17.98963,9.309 -103.45394,25.678 -218.683014,2.025 -144.646309,-18.833"
     id="path5"
     inkscape:connector-curvature="0" /><path
     style="fill:#ffffff;fill-opacity:1"
     d="m 151.67585,176.71426 c 17.896,20.604 -4.702,39.145 -4.702,39.145 0,0 45.441,-23.458 24.572,-52.833 -19.491,-27.394 -34.438,-41.005 46.479,-87.934007 0,0 -127.013003,31.722007 -66.349,101.622007"
     id="path7"
     inkscape:connector-curvature="0" /><path
     style="fill:#ffffff;fill-opacity:1"
     d="M264.684,321.369c0,0,10.492,8.645-11.555,15.333c-41.923,12.7-174.488,16.535-211.314,0.506  c-13.238-5.759,11.587-13.751,19.396-15.428c8.144-1.766,12.798-1.437,12.798-1.437c-14.722-10.371-95.157,20.364-40.857,29.166  C181.236,373.524,303.095,338.695,264.684,321.369"
     id="path9" /><path
     style="fill:#ffffff;fill-opacity:1"
     d="M109.499,208.617c0,0-67.431,16.016-23.879,21.832c18.389,2.462,55.047,1.905,89.193-0.956  c27.906-2.354,55.927-7.359,55.927-7.359s-9.84,4.214-16.959,9.075c-68.475,18.009-200.756,9.631-162.674-8.79  C83.313,206.851,109.499,208.617,109.499,208.617"
     id="path11" /><path
     style="fill:#ffffff;fill-opacity:1"
     d="M230.462,276.231c69.608-36.171,37.424-70.931,14.96-66.248c-5.506,1.146-7.961,2.139-7.961,2.139  s2.044-3.202,5.948-4.588c44.441-15.624,78.619,46.081-14.346,70.52C229.063,278.055,230.14,277.092,230.462,276.231"
     id="path13" /><path
     style="fill:#ffffff;fill-opacity:1"
     d="m 176.63059,-2.380661 c 0,0 38.55,38.563 -36.563,97.861999 -60.232997,47.568002 -13.735,74.690002 -0.025,105.678002 -35.159,-31.722 -60.960997,-59.647 -43.650997,-85.637 C 121.79859,77.371339 192.18459,58.874339 176.63059,-2.380661"
     id="path15"
     inkscape:connector-curvature="0" /><path
     style="fill:#ffffff;fill-opacity:1"
     d="m 195.38587,177.38201 c 16.06354,18.61932 -4.22054,35.37437 -4.22054,35.37437 0,0 40.78806,-21.19841 22.05595,-47.74388 -17.49522,-24.75528 -30.91172,-37.05521 41.71977,-79.463794 0,0 -114.00748,28.666384 -59.55518,91.833304"
     id="path7-7"
     inkscape:connector-curvature="0" /><path
     inkscape:connector-curvature="0"
     style="fill:#ffffff;fill-opacity:1"
     d="m 78.250856,237.52011 c 0,0 -20.622323,10.44291 10.872693,12.6715 40.728521,2.87443 72.892701,3.10953 128.549111,-4.22206 0,0 7.69803,5.33899 19.80272,8.25869 -113.88055,22.78083 -240.7230314,1.79653 -159.224524,-16.70813"
     id="path5-1" /><path
     inkscape:connector-curvature="0"
     style="fill:#ffffff;fill-opacity:1"
     d="m 104.64259,282.97978 c 0,0 -15.713942,5.05348 11.18307,6.76351 32.58498,2.05572 49.23879,1.7609 85.14766,-1.99749 0,0 9.44078,3.27358 22.6255,6.10892 -80.4982,19.07881 -182.183285,-1.10508 -118.95623,-10.87494"
     id="path3-4" /></svg>