<?xml version="1.0" encoding="UTF-8" standalone="no"?>
<svg
   xmlns:dc="http://purl.org/dc/elements/1.1/"
   xmlns:cc="http://creativecommons.org/ns#"
   xmlns:rdf="http://www.w3.org/1999/02/22-rdf-syntax-ns#"
   xmlns:svg="http://www.w3.org/2000/svg"
   xmlns="http://www.w3.org/2000/svg"
   version="1.1"
   id="svg3744"
   viewBox="0 0 154 60.000001"
   height="60"
   width="154">
  <defs
     id="defs3746" />
  <metadata
     id="metadata3749">
    <rdf:RDF>
      <cc:Work
         rdf:about="">
        <dc:format>image/svg+xml</dc:format>
        <dc:type
           rdf:resource="http://purl.org/dc/dcmitype/StillImage" />
        <dc:title></dc:title>
      </cc:Work>
    </rdf:RDF>
  </metadata>
  <g
     transform="translate(0,-992.36197)"
     id="layer1">
    <path
       style="fill:#252729;fill-opacity:1"
       id="path25"
       d="m 15.320613,1051.8592 -3.193656,0 -1.812621,-6.9921 c -0.08625,-0.2572 -0.172587,-0.7763 -0.345243,-1.5535 -0.172607,-0.7762 -0.258932,-1.2938 -0.258932,-1.5529 -0.04289,0.3345 -0.129362,0.8634 -0.258985,1.5959 -0.129365,0.7342 -0.258959,1.252 -0.345289,1.554 l -1.8126154,6.9921 -3.1936519,0 -3.4094684,-13.2926 2.7621039,0 1.6831372,7.2506 c 0.3020522,1.3376 0.517905,2.5024 0.6473573,3.4962 0.042872,-0.3407 0.1293397,-0.8632 0.2589291,-1.5976 0.1293392,-0.7339 0.2589337,-1.2942 0.3884927,-1.6837 l 1.9420875,-7.4655 2.675759,0 1.94209,7.4655 c 0.08618,0.3355 0.172573,0.864 0.30199,1.5114 0.12947,0.69 0.215719,1.2938 0.302016,1.7699 0.04284,-0.4686 0.172597,-1.0799 0.30209,-1.7699 0.129351,-0.6918 0.258957,-1.295 0.345279,-1.7263 l 1.683141,-7.2506 2.762081,0 -3.366287,13.2491 z"
       class="st3" />
    <path
       style="fill:#252729;fill-opacity:1"
       id="path27"
       d="m 32.454165,1045.213 c 0,2.1997 -0.56106,3.8846 -1.63999,5.0935 -1.07894,1.1651 -2.675775,1.7676 -4.704177,1.7676 -2.028396,0 -3.625221,-0.6029 -4.704152,-1.7676 -1.078955,-1.1665 -1.64001,-2.8938 -1.64001,-5.0935 0,-2.2018 0.561058,-3.9276 1.64001,-5.0932 1.078931,-1.1647 2.675756,-1.7682 4.704152,-1.7682 2.028402,0 3.625237,0.6035 4.704177,1.7682 1.122093,1.1656 1.63999,2.849 1.63999,5.0932 z m -9.710458,0 c 0,1.5108 0.302079,2.5895 0.863146,3.3647 0.561063,0.7344 1.424215,1.1243 2.546315,1.1243 2.244181,0 3.36628,-1.5106 3.36628,-4.489 0,-3.0218 -1.122099,-4.4883 -3.36628,-4.4883 -1.1221,0 -1.985255,0.3838 -2.546315,1.1224 -0.560993,0.7335 -0.863146,1.8556 -0.863146,3.3659 z"
       class="st3" />
    <path
       style="fill:#252729;fill-opacity:1"
       id="path29"
       d="m 38.064646,1046.7674 0,5.0918 -2.805251,0 0,-13.2919 3.884194,0 c 1.812612,0 3.150486,0.3435 4.013634,0.9922 0.863156,0.6474 1.294737,1.6388 1.294737,3.0211 0,0.776 -0.215871,1.4673 -0.647359,2.0718 -0.431582,0.6045 -1.035784,1.0788 -1.812633,1.4232 1.985249,2.9793 3.323132,4.9206 3.927352,5.7836 l -3.150503,0 -3.193662,-5.0918 -1.510509,0 z m 0,-2.2877 0.906306,0 c 0.906313,0 1.553666,-0.1281 1.985249,-0.4283 0.431538,-0.2971 0.647374,-0.7764 0.647374,-1.3809 0,-0.6473 -0.215676,-1.0793 -0.647374,-1.3388 -0.431537,-0.2513 -1.122117,-0.3834 -2.028402,-0.3834 l -0.863153,0 0,3.5382 z"
       class="st3" />
    <path
       style="fill:#252729;fill-opacity:1"
       id="path31"
       d="m 58.26236,1051.8592 -3.193653,0 -3.495759,-5.6109 -1.208416,0.8627 0,4.7482 -2.805243,0 0,-13.2919 2.805243,0 0,6.0851 1.1221,-1.5538 3.625225,-4.5313 3.150503,0 -4.660998,5.9124 4.660998,7.3795 z"
       class="st3" />
    <path
       style="fill:#252729;fill-opacity:1"
       id="path33"
       d="m 59.9455,1051.8592 0,-13.2919 2.805249,0 0,13.2919 -2.805249,0 z"
       class="st3" />
    <path
       style="fill:#252729;fill-opacity:1"
       id="path35"
       d="m 77.89903,1051.8592 -3.58205,0 -5.783123,-10.0547 -0.0862,0 c 0.129363,1.7687 0.172573,3.0626 0.172573,3.7963 l 0,6.2584 -2.503136,0 0,-13.2919 3.538917,0 5.783111,9.9688 0.04287,0 c -0.08618,-1.726 -0.129386,-2.9353 -0.129386,-3.669 l 0,-6.2998 2.546291,0 0,13.2919 z"
       class="st3" />
    <path
       style="fill:#252729;fill-opacity:1"
       id="path37"
       d="m 86.314754,1044.3936 5.265235,0 0,6.9044 c -0.863152,0.2571 -1.683151,0.4742 -2.416831,0.6054 -0.77684,0.1253 -1.510518,0.1749 -2.330508,0.1749 -2.028395,0 -3.538913,-0.605 -4.617864,-1.7685 -1.078922,-1.1659 -1.596812,-2.8927 -1.596812,-5.0931 0,-2.1596 0.604192,-3.8414 1.855771,-5.0068 1.208397,-1.2084 2.934725,-1.8117 5.092596,-1.8117 1.381025,0 2.675756,0.2577 3.970478,0.819 l -0.94946,2.2447 c -0.949472,-0.4737 -1.98524,-0.7344 -3.021018,-0.7344 -1.208424,0 -2.201045,0.4293 -2.934719,1.209 -0.733671,0.8195 -1.122109,1.9422 -1.122109,3.3228 0,1.4677 0.302051,2.5458 0.906313,3.3231 0.604189,0.7773 1.467351,1.1208 2.589451,1.1208 0.604183,0 1.208414,-0.06 1.812615,-0.1706 l 0,-2.7634 -2.503138,0 0,-2.3731 z"
       class="st3" />
    <path
       style="fill:#252729;fill-opacity:1"
       id="path43"
       d="m 104.44092,1051.8592 -0.94945,0 0,-6.5593 -7.768355,0 0,6.5593 -0.906333,0 0,-13.2919 0.906333,0 0,5.9124 7.768355,0 0,-5.9124 0.94945,0 0,13.2919 z"
       class="st3" />
    <path
       style="fill:#252729;fill-opacity:1"
       id="path45"
       d="m 119.41662,1045.213 c 0,2.1141 -0.5179,3.7991 -1.59683,5.0067 -1.03576,1.2519 -2.50317,1.8544 -4.35896,1.8544 -1.85576,0 -3.32311,-0.6029 -4.35888,-1.8544 -1.03581,-1.2076 -1.59681,-2.8926 -1.59681,-5.0494 0,-2.1147 0.51786,-3.7995 1.59681,-5.0068 1.07888,-1.2092 2.50312,-1.8119 4.35888,-1.8119 1.8558,0 3.3232,0.6035 4.35896,1.8553 1.07894,1.2082 1.59683,2.8917 1.59683,5.0061 z m -10.91888,0 c 0,1.898 0.43153,3.3647 1.29475,4.4021 0.86311,1.036 2.07153,1.5546 3.66834,1.5546 1.59684,0 2.84842,-0.5175 3.6684,-1.5546 0.86318,-1.0374 1.25158,-2.5041 1.25158,-4.4448 0,-1.8989 -0.43157,-3.4096 -1.25158,-4.4031 -0.86316,-1.0359 -2.07156,-1.5532 -3.6684,-1.5532 -1.59681,0 -2.80523,0.5172 -3.66834,1.5532 -0.8632,1.0799 -1.29475,2.5464 -1.29475,4.4458 z"
       class="st3" />
    <path
       style="fill:#252729;fill-opacity:1"
       id="path47"
       d="m 132.27757,1038.5673 0,8.631 c 0,1.5099 -0.43156,2.7193 -1.33792,3.5814 -0.90628,0.8634 -2.11474,1.2944 -3.71153,1.2944 -1.55367,0 -2.76208,-0.4289 -3.62524,-1.2944 -0.86318,-0.8621 -1.29474,-2.0715 -1.29474,-3.625 l 0,-8.5874 0.94949,0 0,8.631 c 0,1.2954 0.34529,2.2877 1.07892,2.9787 0.69051,0.7325 1.7263,1.078 3.02104,1.078 1.25157,0 2.2442,-0.3356 2.93472,-1.0353 0.69048,-0.6905 1.03575,-1.6836 1.03575,-2.9353 l 0,-8.7171 0.94951,0 z"
       class="st3" />
    <path
       style="fill:#252729;fill-opacity:1"
       id="path49"
       d="m 143.23955,1048.4506 c 0,1.1207 -0.38847,1.9849 -1.20842,2.6321 -0.81999,0.6472 -1.89894,0.9914 -3.23682,0.9914 -1.63999,0 -2.89154,-0.1782 -3.7547,-0.5173 l 0,-0.9495 c 0.9495,0.3877 2.20103,0.6052 3.66845,0.6052 1.07889,0 1.94201,-0.2575 2.58941,-0.7333 0.64733,-0.517 0.94947,-1.1666 0.94947,-1.985 0,-0.5178 -0.0868,-0.9066 -0.30206,-1.2521 -0.21573,-0.3402 -0.561,-0.6474 -1.03579,-0.9066 -0.47468,-0.2634 -1.16523,-0.5598 -2.11471,-0.8648 -1.33787,-0.4668 -2.28735,-0.9898 -2.80521,-1.5092 -0.51792,-0.5599 -0.77687,-1.2514 -0.77687,-2.157 0,-0.9928 0.38851,-1.8134 1.16528,-2.4161 0.77681,-0.6486 1.76945,-0.9513 3.02102,-0.9513 1.25158,0 2.41683,0.2129 3.53891,0.692 l -0.34526,0.8194 c -1.12211,-0.4672 -2.15789,-0.6903 -3.15049,-0.6903 -0.99265,0 -1.76949,0.2064 -2.33048,0.6903 -0.56105,0.4744 -0.86321,1.0784 -0.86321,1.856 0,0.4677 0.0871,0.9056 0.25897,1.2085 0.17261,0.2968 0.47469,0.6034 0.86311,0.8626 0.38851,0.2517 1.12211,0.559 2.11475,0.9059 1.03579,0.3402 1.81263,0.6892 2.33053,1.0361 0.51787,0.3436 0.90628,0.7336 1.12208,1.1659 0.17256,0.3402 0.30209,0.8622 0.30209,1.4679 z"
       class="st3" />
    <path
       style="fill:#252729;fill-opacity:1"
       id="path51"
       d="m 153.33841,1051.8592 -7.29363,0 0,-13.2919 7.29363,0 0,0.8626 -6.34414,0 0,5.0498 5.99891,0 0,0.8629 -5.99891,0 0,5.696 6.34414,0 0,0.8206 z"
       class="st3" />
    <path
       style="fill:#252729;fill-opacity:1"
       id="path53"
       d="m 72.202245,1027.1305 c -0.172588,0 -9.365177,-2.374 -9.494652,-2.4601 0,-0.065 -0.04284,-0.1209 -0.04284,-0.1768 -0.388493,-2.4157 -0.776839,-4.79 -1.165267,-7.2066 -0.301996,-1.9 -0.6042,-3.7981 -0.949465,-5.6974 -0.04283,-0.2516 -0.08618,-0.517 -0.129395,-0.7767 0,-0.061 0,-0.127 -0.0429,-0.1786 -0.04286,0.064 -0.04286,0.083 -0.04286,0.1786 -0.04283,0.3348 -0.08621,0.6919 -0.12936,1.0793 -0.129358,1.0782 -0.302056,2.1566 -0.431537,3.2367 -0.215652,1.5521 -0.388451,3.0642 -0.604179,4.5747 -0.172594,1.1642 -0.302054,2.3301 -0.474697,3.4957 0,0.064 0,0.122 -0.04283,0.1742 -0.0863,0.066 -0.129357,0 -0.172554,0 -0.733657,-0.1742 -1.467358,-0.3343 -2.201034,-0.5595 -1.122093,-0.258 -2.244176,-0.5607 -3.366272,-0.8201 -0.258934,-0.06 -0.215847,-0.06 -0.258934,-0.2511 -0.08631,-1.036 -0.172591,-2.029 -0.258934,-3.0662 -0.0862,-1.1641 -0.21576,-2.3291 -0.302078,-3.4514 -0.08619,-0.9498 -0.172573,-1.942 -0.258961,-2.8915 -0.08617,-1.1648 -0.21567,-2.3297 -0.302052,-3.4528 -0.0862,-1.165 -0.21572,-2.374 -0.302029,-3.539 -0.129342,-1.2519 -0.215714,-2.5038 -0.345279,-3.7963 -0.04285,-0.3844 -0.08621,-0.7782 -0.08621,-1.1678 0,-0.065 0,-0.081 0,-0.1197 0.04283,-0.066 0.129474,-0.066 0.172589,-0.087 0.474694,-0.1278 0.90631,-0.2571 1.381043,-0.34291 0.819981,-0.21561 1.596814,-0.42882 2.416823,-0.64681 0.04283,0 0.129361,-0.0667 0.172574,-0.0667 0.04281,0.0667 0.04281,0.0874 0.04281,0.17684 0.04284,0.3824 0.08621,0.81908 0.08621,1.20788 0.129379,1.3814 0.21573,2.805 0.345248,4.1866 0.08617,1.2079 0.215673,2.4611 0.302074,3.7108 0.129359,1.5542 0.258935,3.0658 0.388495,4.6184 0.0429,0.5175 0.08616,1.0366 0.129557,1.5538 0,0.069 0,0.1195 0.04283,0.2065 0,-0.089 0.04288,-0.1768 0.04288,-0.254 0.08619,-1.036 0.172607,-2.0719 0.258929,-3.0648 0.08615,-1.0347 0.172676,-2.0718 0.258965,-3.1073 0.0863,-1.0347 0.172642,-2.0287 0.258936,-3.0643 0.0862,-1.1654 0.215838,-2.3293 0.302079,-3.4964 0.08634,-1.0342 0.172622,-2.1131 0.258959,-3.14881 0.04286,-0.25169 0,-0.21287 0.258931,-0.29697 1.898916,-0.51672 3.7547,-1.0358 5.653625,-1.55376 0.08631,-0.0664 0.215825,-0.0664 0.302055,-0.0812 0.08618,0.0664 0.08618,0.0812 0.08618,0.12526 0.04283,0.25845 0.04283,0.47528 0.0862,0.73521 0.129369,1.55441 0.302052,3.14967 0.431535,4.70477 0.129344,1.6406 0.30205,3.3227 0.474706,4.9632 0.129352,1.4662 0.25893,2.9768 0.431525,4.4452 0.129341,1.3806 0.258935,2.8045 0.388444,4.1857 0,0.1196 0,0.2063 0.04286,0.3401 0.0863,-0.066 0.04283,-0.079 0.04283,-0.1223 0.04286,-0.3349 0.08616,-0.6469 0.08616,-0.9929 0.12936,-1.3791 0.302049,-2.7182 0.431588,-4.1 0.172639,-1.5529 0.345276,-3.1075 0.474692,-4.7029 0.129358,-1.2954 0.258989,-2.6335 0.43154,-3.9293 0.172553,-1.4665 0.30202,-2.97742 0.474697,-4.44442 0.08629,-0.7331 0.129342,-1.42431 0.215717,-2.15759 0.04287,-0.26248 0,-0.21052 0.258902,-0.29626 2.80526,-0.73397 5.610492,-1.4656 8.458872,-2.19886 0.08629,-0.0679 0.172576,-0.0679 0.258959,-0.0878 0.08622,-0.0691 0.215736,-0.0691 0.34529,0 0.733674,0.1807 1.467352,0.34388 2.201035,0.5599 2.071551,0.51762 4.143123,1.03649 6.214687,1.51153 1.63997,0.38768 3.279967,0.77692 4.876811,1.20724 0.04283,0 0.0863,0.0632 0.129357,0.0632 0.04286,0.0686 0.04286,0.12929 0.04286,0.17491 0,0.38803 0,0.7773 -0.04286,1.12183 -0.0429,1.55512 -0.08629,3.06552 -0.08629,4.61872 -0.04285,1.3811 -0.08626,2.8049 -0.08626,4.1866 0,0.087 0,0.175 0,0.2514 0.04286,0 0.08626,0.065 0.129359,0.065 0.949465,0.1784 1.855774,0.3394 2.80524,0.5589 0.0429,0 0.129374,0.063 0.172575,0 0,-0.067 0,-0.067 0.04283,-0.082 0,-0.065 0,-0.086 0,-0.1267 0.04285,-3.1505 0.08631,-6.3439 0.129368,-9.49432 0,-0.0836 0,-0.17639 0.04286,-0.20848 0.04286,-0.067 0.129352,0 0.172592,0 0.517888,0.11698 1.035773,0.29692 1.553659,0.42808 2.373672,0.64741 4.747332,1.33794 7.121022,1.98502 0.12938,0.067 0.259,0.067 0.34529,0.1305 0,0.062 0,0.089 0,0.089 0,0.067 0,0.1235 0,0.1767 0,7.596 0,15.191 0,22.7876 0,0.066 0,0.1196 0,0.1803 0,0.081 0,0.1222 -0.12938,0.1222 -0.0429,0 -0.0869,0 -0.0869,0 -1.89894,0.2997 -3.75472,0.6477 -5.65365,0.9488 -1.035797,0.1749 -2.114704,0.3354 -3.15051,0.5602 -0.04287,0 -0.129362,0.065 -0.172574,0 0,-0.064 0,-0.064 0,-0.089 0,-0.065 0,-0.1234 0,-0.1783 -0.04287,-3.7121 -0.08615,-7.3801 -0.129385,-11.0919 0,-0.083 0,-0.1201 -0.04284,-0.2084 -0.04287,0 -0.04287,0 -0.0863,-0.065 -1.035798,-0.065 -2.071583,-0.084 -3.107359,-0.1192 0,0 -0.04283,0 -0.04283,0 -0.04287,0.084 -0.04287,0.1192 -0.04287,0.2078 0,0.5175 0,1.0796 0,1.5974 -0.04285,3.3226 -0.08615,6.6028 -0.08615,9.9264 0,0.087 0,0.1183 -0.04284,0.213 -0.08624,0.064 -0.129384,0.064 -0.215766,0.064 -1.078939,0.1764 -2.114707,0.3349 -3.193665,0.5163 -1.381038,0.2154 -2.718928,0.4286 -4.099957,0.6479 -1.510522,0.2577 -3.021025,0.4729 -4.488381,0.7339 -0.345278,0.063 -0.647361,0.081 -0.992625,0.1782 -0.04286,0 -0.08616,0 -0.129343,0 0,-0.06 0,-0.083 0,-0.083 0,-0.085 0,-0.1725 0,-0.2091 0,-10.9189 0,-21.8812 0,-32.79995 0,-0.1766 0,-0.29728 0,-0.47442 0,-0.0667 0,-0.12365 0,-0.21461 -0.04283,0.0667 -0.04283,0.0879 -0.04283,0.12109 -0.04287,0.24857 -0.0862,0.56104 -0.129359,0.82086 -0.172535,1.2512 -0.345282,2.50238 -0.51789,3.71167 -0.215719,1.50952 -0.431538,3.02046 -0.647367,4.57306 -0.258937,1.6836 -0.474703,3.3668 -0.733683,5.0083 -0.25893,1.9417 -0.561054,3.8819 -0.819995,5.8685 -0.215711,1.4667 -0.431522,2.9768 -0.647356,4.4454 -0.258955,1.6836 -0.47469,3.3667 -0.733673,5.0493 -0.17259,1.2505 -0.345294,2.5026 -0.517903,3.7545 -0.129355,0.1763 -0.129355,0.2598 -0.172576,0.2971 z"
       class="st4" />
  </g>
</svg>
