<?xml version="1.0" encoding="utf-8"?>
<!-- Generator: Adobe Illustrator 16.0.0, SVG Export Plug-In . SVG Version: 6.00 Build 0)  -->
<!DOCTYPE svg PUBLIC "-//W3C//DTD SVG 1.1//EN" "http://www.w3.org/Graphics/SVG/1.1/DTD/svg11.dtd">
<svg version="1.1" id="Capa_1" xmlns="http://www.w3.org/2000/svg" xmlns:xlink="http://www.w3.org/1999/xlink" x="0px" y="0px"
	 width="1253px" height="119px" viewBox="0 0 1253 119" enable-background="new 0 0 1253 119" xml:space="preserve">
<g>
	<path fill="#FFFFFF" d="M127.23,113.461h-26.059L86.539,56.729c-0.549-2.005-1.481-6.163-2.764-12.532
		c-1.312-6.295-2.071-10.556-2.256-12.723c-0.291,2.653-1.04,6.944-2.226,12.826c-1.18,5.868-2.086,10.055-2.731,12.576
		l-14.555,56.585H36.025L8.477,5.481H30.99L44.812,64.41c2.411,10.895,4.158,20.331,5.274,28.321c0.28-2.83,0.936-7.18,2.005-13.048
		c1.058-5.867,2.064-10.438,2.993-13.696l15.72-60.506h21.658l15.716,60.506c0.708,2.713,1.555,6.826,2.591,12.385
		c1.017,5.603,1.795,10.335,2.348,14.359c0.512-3.892,1.279-8.669,2.37-14.374c1.102-5.735,2.079-10.38,2.967-13.947l13.745-58.929
		h22.528L127.23,113.461z"/>
	<path fill="#FFFFFF" d="M266.312,59.323c0,17.884-4.43,31.58-13.295,41.223c-8.868,9.598-21.551,14.39-38.107,14.39
		c-16.531,0-29.247-4.792-38.101-14.39c-8.886-9.643-13.294-23.397-13.294-41.355c0-18.001,4.423-31.743,13.342-41.178
		c8.865-9.465,21.614-14.228,38.211-14.228c16.568,0,29.273,4.792,38.056,14.331C261.937,27.67,266.312,41.396,266.312,59.323z
		 M187.486,59.323c0,12.09,2.33,21.128,6.885,27.246c4.582,6.133,11.426,9.17,20.538,9.17c18.278,0,27.404-12.148,27.404-36.416
		c0-24.297-9.085-36.46-27.246-36.46c-9.107,0-15.989,3.052-20.637,9.185C189.831,38.167,187.486,47.264,187.486,59.323z"/>
	<path fill="#FFFFFF" d="M311.581,72.018v41.443h-22.878V5.481h31.451c14.677,0,25.539,2.668,32.561,8.02
		c7.065,5.353,10.56,13.461,10.56,24.371c0,6.325-1.74,11.957-5.234,16.91c-3.483,4.969-8.429,8.831-14.835,11.633
		c16.27,24.282,26.822,39.969,31.739,47.046h-25.392L323.77,72.018H311.581z M311.581,53.396h7.382c7.25,0,12.58-1.179,16.037-3.612
		c3.432-2.388,5.146-6.177,5.146-11.367c0-5.101-1.725-8.757-5.245-10.895c-3.542-2.183-8.979-3.273-16.379-3.273h-6.94V53.396z"/>
	<path fill="#FFFFFF" d="M475.39,113.461h-25.97l-28.307-45.483l-9.671,6.93v38.554h-22.889V5.481h22.889v49.405l9.026-12.709
		l29.244-36.696h25.388l-37.654,47.813L475.39,113.461z"/>
	<path fill="#FFFFFF" d="M489.013,113.461V5.481h22.893v107.98H489.013z"/>
	<path fill="#FFFFFF" d="M634.864,113.461h-29.107l-46.972-81.663h-0.678c0.951,14.419,1.434,24.725,1.434,30.843v50.82h-20.464
		V5.481h28.86l46.898,80.852h0.523c-0.719-14.021-1.102-23.929-1.102-29.752v-51.1h20.607V113.461z"/>
	<path fill="#FFFFFF" d="M703.037,52.822h42.837v55.98c-6.959,2.271-13.49,3.878-19.616,4.747
		c-6.141,0.944-12.354,1.387-18.775,1.387c-16.328,0-28.757-4.763-37.345-14.36c-8.581-9.598-12.894-23.31-12.894-41.252
		c0-17.441,4.969-31.02,14.98-40.765c9.959-9.746,23.75-14.611,41.443-14.611c11.094,0,21.775,2.182,32.059,6.634l-7.629,18.312
		c-7.844-3.907-16.063-5.897-24.563-5.897c-9.908,0-17.818,3.347-23.804,9.952c-5.948,6.649-8.919,15.598-8.919,26.803
		c0,11.735,2.388,20.67,7.201,26.877c4.785,6.163,11.766,9.259,20.928,9.259c4.792,0,9.65-0.501,14.553-1.475V71.899h-20.457V52.822
		z"/>
</g>
<g>
	<g>
		<path fill="#FFFFFF" d="M850.094,113.461h-7.6V60.37h-63.102v53.091h-7.496V5.481h7.496v47.916h63.102V5.481h7.6V113.461z"/>
		<path fill="#FFFFFF" d="M971.453,59.323c0,17.146-4.289,30.71-12.848,40.633c-8.588,10.011-20.412,14.979-35.473,14.979
			c-15.023,0-26.804-4.969-35.361-14.979c-8.588-9.923-12.864-23.53-12.864-40.765s4.319-30.74,12.96-40.588
			c8.646-9.907,20.441-14.817,35.42-14.817c15.082,0,26.84,4.969,35.385,14.891C967.164,28.599,971.453,42.162,971.453,59.323z
			 M883.119,59.323c0,15.451,3.443,27.394,10.328,35.856c6.885,8.462,16.763,12.664,29.686,12.664
			c13.011,0,22.947-4.188,29.818-12.576c6.863-8.345,10.291-20.331,10.291-35.944c0-15.554-3.428-27.452-10.291-35.812
			c-6.871-8.256-16.771-12.414-29.664-12.414c-12.855,0-22.771,4.202-29.729,12.546C886.584,32.019,883.119,43.917,883.119,59.323z"
			/>
		<path fill="#FFFFFF" d="M1075.652,5.481v69.883c0,12.414-3.59,22.101-10.771,29.104c-7.194,6.988-17.22,10.468-30.083,10.468
			c-12.496,0-22.256-3.479-29.266-10.498c-7.025-7.032-10.527-16.821-10.527-29.383V5.481h7.594v69.883
			c0,10.379,2.889,18.488,8.646,24.224c5.75,5.823,13.91,8.698,24.467,8.698c10.291,0,18.236-2.816,23.906-8.507
			c5.668-5.706,8.506-13.608,8.506-23.692V5.481H1075.652z"/>
		<path fill="#FFFFFF" d="M1164.664,85.625c0,9.009-3.302,16.174-9.959,21.438c-6.619,5.248-15.406,7.873-26.397,7.873
			c-13.188,0-23.294-1.46-30.349-4.35v-7.534c7.799,3.288,17.699,4.925,29.773,4.925c8.854,0,15.894-2.02,21.083-6.06
			c5.204-4.084,7.792-9.392,7.792-15.981c0-4.144-0.848-7.476-2.588-10.174c-1.739-2.697-4.533-5.13-8.418-7.356
			c-3.899-2.212-9.605-4.6-17.139-7.165c-11.021-3.789-18.629-7.873-22.853-12.267c-4.224-4.482-6.325-10.32-6.325-17.677
			c0-8.02,3.17-14.625,9.518-19.711c6.303-5.116,14.44-7.637,24.393-7.637c10.143,0,19.66,1.902,28.587,5.735l-2.735,6.502
			c-8.949-3.73-17.544-5.603-25.705-5.603c-7.982,0-14.314,1.828-19.055,5.559c-4.726,3.671-7.07,8.684-7.07,15.053
			c0,4.01,0.693,7.254,2.153,9.834c1.467,2.55,3.862,4.851,7.144,6.885c3.279,2.035,8.956,4.512,16.969,7.372
			c8.44,2.89,14.773,5.69,18.982,8.447c4.261,2.713,7.342,5.839,9.273,9.318C1163.684,76.5,1164.664,80.687,1164.664,85.625z"/>
		<path fill="#FFFFFF" d="M1246.482,113.461h-59.01V5.481h59.01v6.929h-51.483v40.883h48.601v6.944h-48.601v46.294h51.483V113.461z"
			/>
	</g>
</g>
</svg>
